<mxfile host="app.diagrams.net" modified="2024-03-09T03:24:57.259Z" agent="Mozilla/5.0 (Windows NT 10.0; Win64; x64) AppleWebKit/537.36 (KHTML, like Gecko) Chrome/122.0.0.0 Safari/537.36" version="24.0.1" etag="KQpoL5jwZmHWgL7y1x5a" type="github">
  <diagram name="Page-1" id="29IbZUK5nLMqWAKEhT4y">
    <mxGraphModel>
      <root>
        <mxCell id="0" />
        <mxCell id="1" parent="0" />
      </root>
    </mxGraphModel>
  </diagram>
</mxfile>
